<svg xmlns="http://www.w3.org/2000/svg" viewBox="0 0 500 500"><g id="freepik--Floor--inject-16"><path d="M407.68,262.82c-88-50.83-230.31-50.83-317.77,0s-87,133.24,1,184.07,230.31,50.83,317.78,0S495.72,313.65,407.68,262.82Z" style="fill:#f5f5f5"></path></g><g id="freepik--Device--inject-16"><path d="M237.14,334.22,208.7,350.5a27,27,0,0,1-26.85-.05l-21.11-12.16a8.11,8.11,0,0,1-4.05-7l0-14.39-4.4,2.54V332a9.42,9.42,0,0,0,4.73,8.18l25.05,14.44a26.53,26.53,0,0,0,26.44,0l28.65-16.39a10.72,10.72,0,0,0,5.23-11.36A10.65,10.65,0,0,1,237.14,334.22Z" style="fill:#407BFF"></path><path d="M237.14,334.22,208.7,350.5a27,27,0,0,1-26.85-.05l-21.11-12.16a8.11,8.11,0,0,1-4.05-7l0-14.39-4.4,2.54V332a9.42,9.42,0,0,0,4.73,8.18l25.05,14.44a26.53,26.53,0,0,0,26.44,0l28.65-16.39a10.72,10.72,0,0,0,5.23-11.36A10.65,10.65,0,0,1,237.14,334.22Z" style="opacity:0.1"></path><path d="M160.74,338.29l21.11,12.16a27,27,0,0,0,26.85.05l28.44-16.28a10.65,10.65,0,0,0,5.23-7.36,10.65,10.65,0,0,0-5-7.25l-23.33-14a9.45,9.45,0,0,1-4.58-8.1V286.41L156.67,316.9l0,14.39A8.11,8.11,0,0,0,160.74,338.29Z" style="fill:#407BFF"></path><path d="M160.74,338.29a8.11,8.11,0,0,1-4.05-7l0-14.39-4.4,2.54V332a9.42,9.42,0,0,0,4.73,8.18l8.89,5.12v-4Z" style="opacity:0.4"></path><path d="M160.74,338.29l5.15,3h0L221,309.78,214,305.62a9.45,9.45,0,0,1-4.58-8.1V286.41L156.67,316.9l0,14.39A8.11,8.11,0,0,0,160.74,338.29Z" style="opacity:0.30000000000000004"></path><path d="M67.52,374.13h0l-.06,0Z" style="fill:#ffa8a7"></path><path d="M65,368.87l-.4-180.38c0-5.12,3.58-11.36,8-13.94L296.88,45.43c2.21-1.28,4.22-1.4,5.69-.58L294.12,40h0c-1.47-.94-3.55-.86-5.86.47L64.05,169.55c-4.47,2.58-8.07,8.82-8,13.94l.4,180.38c0,2.42.83,4.14,2.15,5h0a3.3,3.3,0,0,0,.45.26L67.34,374C65.91,373.17,65,371.39,65,368.87Z" style="fill:#407BFF"></path><path d="M294.12,40h0c-1.47-.94-3.55-.86-5.86.47L64.05,169.55a16.86,16.86,0,0,0-6.17,6.88l8.63,5a16.89,16.89,0,0,1,6.15-6.86L296.88,45.43c2.21-1.28,4.22-1.4,5.69-.58Z" style="fill:#fff;opacity:0.30000000000000004"></path><path d="M56,183.49l.4,180.38c0,2.42.83,4.14,2.15,5h0a3.3,3.3,0,0,0,.45.26L67.34,374c-1.43-.85-2.31-2.63-2.32-5.15l-.4-180.38a15.71,15.71,0,0,1,1.89-7.08l-8.63-5A15.74,15.74,0,0,0,56,183.49Z" style="opacity:0.2"></path><path d="M302.66,44.9l0,0,0,0Z" style="fill:#ffa8a7"></path><path d="M305,50.05c0-2.52-.9-4.29-2.32-5.15l0,0-.05,0c-1.47-.82-3.48-.7-5.69.58L72.66,174.55c-4.46,2.58-8.06,8.82-8,13.94L65,368.87c0,2.52.89,4.3,2.32,5.15l.12.07.06,0c1.46.77,3.43.62,5.6-.63L297.34,244.37c4.45-2.57,8.06-8.82,8-13.94ZM293.35,237.47,73,364.37l-.4-175.9a10.08,10.08,0,0,1,4.07-7L297,54.55l.4,175.9A10.08,10.08,0,0,1,293.35,237.47Z" style="fill:#407BFF"></path><path d="M297,54.55l-5.7,3.29.38,169.83a10,10,0,0,1-4.07,7L73,358.3l0,6.07,220.37-126.9a10.08,10.08,0,0,0,4.07-7Z" style="fill:#407BFF"></path><path d="M297,54.55l-5.7,3.29.38,169.83a10,10,0,0,1-4.07,7L73,358.3l0,6.07,220.37-126.9a10.08,10.08,0,0,0,4.07-7Z" style="opacity:0.30000000000000004"></path><path d="M291.7,227.67l-.38-169.83L76.65,181.45a10.08,10.08,0,0,0-4.07,7L73,358.3,287.63,234.68A10,10,0,0,0,291.7,227.67Z" style="fill:#455a64"></path></g><g id="freepik--Windows--inject-16"><path d="M99,378,98.61,207.5a16.79,16.79,0,0,1,7.61-13.18l211.92-122c2.09-1.21,4-1.33,5.38-.55l-8-4.63h0c-1.4-.89-3.37-.81-5.55.45L98.07,189.6a16.72,16.72,0,0,0-7.6,13.17l.38,170.49c0,2.28.78,3.92,2,4.76h0a3.58,3.58,0,0,0,.42.25l7.87,4.58C99.84,382.05,99,380.37,99,378Z" style="fill:#407BFF"></path><path d="M315.54,67.1h0c-1.4-.89-3.37-.81-5.55.45L98.07,189.6a16,16,0,0,0-5.83,6.49l8.16,4.71a15.94,15.94,0,0,1,5.82-6.48l211.92-122c2.09-1.21,4-1.33,5.38-.55Z" style="fill:#fff;opacity:0.4"></path><path d="M90.47,202.77l.38,170.49c0,2.28.78,3.92,2,4.76h0a3.58,3.58,0,0,0,.42.25l7.87,4.58c-1.34-.8-2.18-2.48-2.19-4.86L98.61,207.5a15.07,15.07,0,0,1,1.79-6.7l-8.16-4.71A15,15,0,0,0,90.47,202.77Z" style="fill:#fff;opacity:0.30000000000000004"></path><path d="M98.63,217.38,99,378c0,2.38.85,4.06,2.19,4.86l.12.07.06,0c1.38.72,3.24.59,5.29-.6l211.92-122a16.8,16.8,0,0,0,7.61-13.18l-.36-160.87Z" style="fill:#407BFF"></path><path d="M98.63,217.38,99,378c0,2.38.85,4.06,2.19,4.86l.12.07.06,0c1.38.72,3.24.59,5.29-.6l211.92-122a16.8,16.8,0,0,0,7.61-13.18l-.36-160.87Z" style="fill:#fff;opacity:0.5"></path><path d="M317,97c2-1.13,3.56-.23,3.57,2a7.81,7.81,0,0,1-3.55,6.14l-181.66,105c-2,1.13-3.57.22-3.57-2a7.82,7.82,0,0,1,3.55-6.15Z" style="fill:#407BFF"></path><g style="opacity:0.8"><path d="M317,97c2-1.13,3.56-.23,3.57,2a7.81,7.81,0,0,1-3.55,6.14l-181.66,105c-2,1.13-3.57.22-3.57-2a7.82,7.82,0,0,1,3.55-6.15Z" style="fill:#fff"></path></g><path d="M108.68,219.22a.27.27,0,0,1,.24,0c.15.07.16.33,0,.57l-1.15,2.11,3.87-2.23c.2-.12.36,0,.36.2a.78.78,0,0,1-.36.62l-3.87,2.24,1.16.78c.13.09.12.35,0,.59a.83.83,0,0,1-.24.25.29.29,0,0,1-.27,0l-1.71-1.16a.27.27,0,0,1-.07-.08.68.68,0,0,1,0-.14.77.77,0,0,1,0-.15.67.67,0,0,1,.07-.17l1.7-3.13A.65.65,0,0,1,108.68,219.22Z" style="fill:#407BFF"></path><path d="M118.46,213.57a.25.25,0,0,1,.27,0l1.71,1.15a.31.31,0,0,1,.07.09.69.69,0,0,1,0,.13.77.77,0,0,1,0,.15.67.67,0,0,1-.07.17l-1.7,3.13a.83.83,0,0,1-.26.29.29.29,0,0,1-.25,0c-.14-.07-.15-.32,0-.57l1.15-2.11-3.87,2.24c-.2.11-.36,0-.36-.21a.81.81,0,0,1,.36-.62l3.87-2.23-1.16-.78c-.13-.09-.12-.36,0-.59A.72.72,0,0,1,118.46,213.57Z" style="fill:#407BFF"></path><path d="M125.62,209.44a1.81,1.81,0,0,1,1.19-.29.77.77,0,0,1,.35-.56h0c.19-.1.35,0,.34.23l0,.92a.82.82,0,0,1-.34.59l-.78.49h0c-.19.11-.35,0-.36-.19a.8.8,0,0,1,.28-.58,1.49,1.49,0,0,0-.65.21,3.31,3.31,0,0,0-1.5,2.59c0,1,.68,1.33,1.51.85A3.23,3.23,0,0,0,127,212a.73.73,0,0,1,.31-.39.3.3,0,0,1,.17-.05c.18,0,.24.22.15.47a4.83,4.83,0,0,1-2,2.46c-1.22.7-2.22.13-2.22-1.27A4.88,4.88,0,0,1,125.62,209.44Z" style="fill:#407BFF"></path><g style="opacity:0.7000000000000001"><path d="M108.68,219.22a.27.27,0,0,1,.24,0c.15.07.16.33,0,.57l-1.15,2.11,3.87-2.23c.2-.12.36,0,.36.2a.78.78,0,0,1-.36.62l-3.87,2.24,1.16.78c.13.09.12.35,0,.59a.83.83,0,0,1-.24.25.29.29,0,0,1-.27,0l-1.71-1.16a.27.27,0,0,1-.07-.08.68.68,0,0,1,0-.14.77.77,0,0,1,0-.15.67.67,0,0,1,.07-.17l1.7-3.13A.65.65,0,0,1,108.68,219.22Z" style="fill:#fff"></path><path d="M118.46,213.57a.25.25,0,0,1,.27,0l1.71,1.15a.31.31,0,0,1,.07.09.69.69,0,0,1,0,.13.77.77,0,0,1,0,.15.67.67,0,0,1-.07.17l-1.7,3.13a.83.83,0,0,1-.26.29.29.29,0,0,1-.25,0c-.14-.07-.15-.32,0-.57l1.15-2.11-3.87,2.24c-.2.11-.36,0-.36-.21a.81.81,0,0,1,.36-.62l3.87-2.23-1.16-.78c-.13-.09-.12-.36,0-.59A.72.72,0,0,1,118.46,213.57Z" style="fill:#fff"></path><path d="M125.62,209.44a1.81,1.81,0,0,1,1.19-.29.77.77,0,0,1,.35-.56h0c.19-.1.35,0,.34.23l0,.92a.82.82,0,0,1-.34.59l-.78.49h0c-.19.11-.35,0-.36-.19a.8.8,0,0,1,.28-.58,1.49,1.49,0,0,0-.65.21,3.31,3.31,0,0,0-1.5,2.59c0,1,.68,1.33,1.51.85A3.23,3.23,0,0,0,127,212a.73.73,0,0,1,.31-.39.3.3,0,0,1,.17-.05c.18,0,.24.22.15.47a4.83,4.83,0,0,1-2,2.46c-1.22.7-2.22.13-2.22-1.27A4.88,4.88,0,0,1,125.62,209.44Z" style="fill:#fff"></path></g><path d="M189.7,300.51l125.48-72.4a2.18,2.18,0,0,1,3.27,1.89v15.75a5.45,5.45,0,0,1-2.73,4.72L190.23,323a2.19,2.19,0,0,1-3.28-1.89l0-15.85A5.46,5.46,0,0,1,189.7,300.51Z" style="fill:#407BFF"></path><path d="M316.1,134.05l0-15.82a2.18,2.18,0,0,0-3.27-1.88L189.69,187a5.46,5.46,0,0,0-2.74,4.73V208a2.19,2.19,0,0,0,3.28,1.89l123.15-71.1A5.45,5.45,0,0,0,316.1,134.05Z" style="fill:#407BFF"></path><polygon points="273.67 154.74 273.67 157.21 194.13 203.13 194.12 200.67 273.67 154.74" style="fill:#fff"></polygon><polygon points="273.65 150.19 273.66 152.64 194.11 198.57 194.11 196.11 273.65 150.19" style="fill:#fff"></polygon><polygon points="238.8 165.18 238.81 167.65 194.1 193.46 194.09 191 238.8 165.18" style="fill:#fff"></polygon><polygon points="304.95 131.84 304.96 134.3 290.81 142.47 290.8 140 304.95 131.84" style="fill:#407BFF"></polygon><path d="M305.65,126.59c2.91-1.68,5.28-.34,5.29,3a11.61,11.61,0,0,1-5.26,9.12l-15.56,9c-2.92,1.69-5.29.34-5.3-3a11.57,11.57,0,0,1,5.26-9.11ZM305,134.3v-2.46L290.8,140v2.46L305,134.3" style="fill:#fff"></path><path d="M260.25,252.12,314.08,221a8.74,8.74,0,0,0,4.37-7.56V149.59a3.27,3.27,0,0,0-4.91-2.83L259.7,177.84a8.73,8.73,0,0,0-4.36,7.56v63.88A3.28,3.28,0,0,0,260.25,252.12Z" style="fill:#407BFF"></path><path d="M283.18,190.46l1.79-1a.25.25,0,0,0,.09-.34.25.25,0,0,0-.35-.1l-1.79,1a.26.26,0,0,0,.13.48A.33.33,0,0,0,283.18,190.46Z" style="fill:#fff"></path><path d="M274.22,195.6l1.79-1a.25.25,0,1,0-.25-.44l-1.79,1a.26.26,0,0,0-.1.35.26.26,0,0,0,.22.12A.28.28,0,0,0,274.22,195.6Z" style="fill:#fff"></path><path d="M265.27,200.74l1.79-1a.26.26,0,0,0-.26-.44l-1.79,1a.26.26,0,0,0-.09.35.25.25,0,0,0,.22.12A.31.31,0,0,0,265.27,200.74Z" style="fill:#fff"></path><path d="M269.74,198.17l1.79-1a.25.25,0,0,0,.1-.35.26.26,0,0,0-.35-.09l-1.79,1a.26.26,0,0,0-.09.35.24.24,0,0,0,.22.12Z" style="fill:#fff"></path><path d="M278.7,193l1.79-1a.25.25,0,0,0,.09-.34.24.24,0,0,0-.34-.1l-1.79,1a.25.25,0,0,0,.12.47A.28.28,0,0,0,278.7,193Z" style="fill:#fff"></path><path d="M305.57,177.61l1.79-1a.26.26,0,0,0,.09-.35.25.25,0,0,0-.35-.1l-1.79,1a.26.26,0,0,0,.13.48A.22.22,0,0,0,305.57,177.61Z" style="fill:#fff"></path><path d="M292.13,185.32l1.79-1a.24.24,0,0,0,.1-.34.25.25,0,0,0-.35-.1l-1.79,1a.26.26,0,0,0-.09.35.25.25,0,0,0,.22.13A.28.28,0,0,0,292.13,185.32Z" style="fill:#fff"></path><path d="M301.09,180.18l1.79-1a.25.25,0,0,0,.09-.34.24.24,0,0,0-.34-.1l-1.8,1a.26.26,0,0,0,.13.48A.22.22,0,0,0,301.09,180.18Z" style="fill:#fff"></path><path d="M309.92,175.08a.19.19,0,0,0,.12,0l1.8-1a.26.26,0,0,0,.09-.35.25.25,0,0,0-.35-.1l-1.79,1a.26.26,0,0,0-.09.35A.25.25,0,0,0,309.92,175.08Z" style="fill:#fff"></path><path d="M296.61,182.75l1.79-1a.25.25,0,0,0,.1-.34.25.25,0,0,0-.35-.1l-1.79,1a.26.26,0,0,0-.1.35.27.27,0,0,0,.22.13A.2.2,0,0,0,296.61,182.75Z" style="fill:#fff"></path><path d="M315.53,185.86a.25.25,0,0,0-.25-.25.26.26,0,0,0-.26.25v2a.26.26,0,0,0,.26.25.25.25,0,0,0,.25-.25Z" style="fill:#fff"></path><path d="M315.53,180.82a.25.25,0,0,0-.25-.25.26.26,0,0,0-.26.25v2a.26.26,0,0,0,.26.25.25.25,0,0,0,.25-.25Z" style="fill:#fff"></path><path d="M315.53,190.9a.26.26,0,0,0-.25-.26.26.26,0,0,0-.26.26v2a.26.26,0,0,0,.26.26.26.26,0,0,0,.25-.26Z" style="fill:#fff"></path><path d="M315.53,195.94a.25.25,0,0,0-.25-.26.26.26,0,0,0-.26.26v2a.26.26,0,0,0,.26.26.26.26,0,0,0,.25-.26Z" style="fill:#fff"></path><path d="M315.53,201a.25.25,0,0,0-.25-.25.26.26,0,0,0-.26.25v2a.26.26,0,0,0,.26.25.25.25,0,0,0,.25-.25Z" style="fill:#fff"></path><path d="M315.28,205.76a.26.26,0,0,0-.26.25v2a.26.26,0,0,0,.26.26.25.25,0,0,0,.25-.26v-2A.25.25,0,0,0,315.28,205.76Z" style="fill:#fff"></path><path d="M315.53,175.79a.26.26,0,0,0-.25-.26.26.26,0,0,0-.26.26v2a.26.26,0,0,0,.26.26.26.26,0,0,0,.25-.26Z" style="fill:#fff"></path><path d="M293.74,224.19l-1.78,1a.25.25,0,0,0-.1.35.26.26,0,0,0,.22.13.2.2,0,0,0,.13,0l1.79-1a.26.26,0,0,0-.26-.44Z" style="fill:#fff"></path><path d="M267,239.63l-1.78,1a.26.26,0,0,0-.09.35.25.25,0,0,0,.22.13.19.19,0,0,0,.12,0l1.79-1a.25.25,0,0,0,.09-.34A.25.25,0,0,0,267,239.63Z" style="fill:#fff"></path><path d="M271.43,237.06l-1.79,1a.26.26,0,0,0-.09.35.25.25,0,0,0,.22.12.31.31,0,0,0,.13,0l1.78-1a.25.25,0,1,0-.25-.44Z" style="fill:#fff"></path><path d="M307.13,216.47l-1.79,1a.26.26,0,0,0,.13.48.22.22,0,0,0,.13,0l1.78-1a.25.25,0,1,0-.25-.44Z" style="fill:#fff"></path><path d="M280.35,231.91l-1.78,1a.26.26,0,0,0-.1.35.27.27,0,0,0,.22.13.2.2,0,0,0,.13,0l1.79-1a.25.25,0,0,0,.09-.34A.25.25,0,0,0,280.35,231.91Z" style="fill:#fff"></path><path d="M302.67,219l-1.79,1a.26.26,0,0,0-.09.35.25.25,0,0,0,.22.13l.13,0,1.78-1a.26.26,0,0,0,.09-.35A.25.25,0,0,0,302.67,219Z" style="fill:#fff"></path><path d="M284.82,229.34l-1.79,1a.26.26,0,0,0-.09.35.24.24,0,0,0,.22.12.27.27,0,0,0,.12,0l1.79-1a.26.26,0,0,0,.09-.35A.25.25,0,0,0,284.82,229.34Z" style="fill:#fff"></path><path d="M311.59,213.9l-1.78,1a.25.25,0,0,0-.1.35.26.26,0,0,0,.22.12.28.28,0,0,0,.13,0l1.79-1a.26.26,0,1,0-.26-.44Z" style="fill:#fff"></path><path d="M298.2,221.62l-1.78,1a.26.26,0,0,0-.1.35.27.27,0,0,0,.23.12l.12,0,1.79-1a.26.26,0,1,0-.26-.44Z" style="fill:#fff"></path><path d="M275.89,234.49l-1.79,1a.25.25,0,0,0-.09.34.24.24,0,0,0,.22.13.28.28,0,0,0,.13,0l1.78-1a.25.25,0,0,0,.1-.35A.26.26,0,0,0,275.89,234.49Z" style="fill:#fff"></path><path d="M261.65,221.49h0a.25.25,0,0,0-.25.25v2a.25.25,0,0,0,.25.25h0a.26.26,0,0,0,.26-.25v-2A.26.26,0,0,0,261.65,221.49Z" style="fill:#fff"></path><path d="M261.68,226.53h0a.26.26,0,0,0-.25.26v2a.25.25,0,0,0,.25.25h0a.26.26,0,0,0,.26-.26v-2A.26.26,0,0,0,261.68,226.53Z" style="fill:#fff"></path><path d="M261.59,206.36h0a.25.25,0,0,0-.25.25v2a.25.25,0,0,0,.25.25h0a.25.25,0,0,0,.25-.25v-2A.25.25,0,0,0,261.59,206.36Z" style="fill:#fff"></path><path d="M261.72,236.62a.24.24,0,0,0-.25.25v2a.26.26,0,0,0,.26.26h0a.26.26,0,0,0,.25-.26v-2a.25.25,0,0,0-.25-.25Z" style="fill:#fff"></path><path d="M261.61,211.4h0a.26.26,0,0,0-.26.26v2a.26.26,0,0,0,.26.26h0a.26.26,0,0,0,.25-.26v-2A.25.25,0,0,0,261.61,211.4Z" style="fill:#fff"></path><path d="M261.63,216.45h0a.25.25,0,0,0-.25.25v2a.26.26,0,0,0,.26.25h0a.25.25,0,0,0,.25-.25v-2A.26.26,0,0,0,261.63,216.45Z" style="fill:#fff"></path><path d="M261.7,231.58h0a.26.26,0,0,0-.26.25v2a.26.26,0,0,0,.26.25h0a.25.25,0,0,0,.25-.25v-2A.25.25,0,0,0,261.7,231.58Z" style="fill:#fff"></path><path d="M264.1,200.08a.23.23,0,0,0-.25,0l-3,1.71a.25.25,0,0,0-.13.22v3.4a.25.25,0,0,0,.13.22.19.19,0,0,0,.12,0,.2.2,0,0,0,.13,0l3-1.71a.25.25,0,0,0,.13-.22v-3.4A.25.25,0,0,0,264.1,200.08Zm-.38.66v2.81L261.28,205v-2.82Z" style="fill:#fff"></path><path d="M290,185.05a.24.24,0,0,0-.26,0l-3,1.71a.25.25,0,0,0-.13.22v3.4a.25.25,0,0,0,.13.22.2.2,0,0,0,.13,0,.19.19,0,0,0,.12,0l3-1.71a.26.26,0,0,0,.12-.22v-3.4A.26.26,0,0,0,290,185.05Zm-.38.66v2.82l-2.45,1.41v-2.81Z" style="fill:#fff"></path><path d="M312.44,176.38a.3.3,0,0,0,.26,0l3-1.71a.26.26,0,0,0,.13-.22V171a.26.26,0,0,0-.13-.22.28.28,0,0,0-.25,0l-3,1.71a.27.27,0,0,0-.12.22v3.41A.27.27,0,0,0,312.44,176.38Zm2.83-4.9v2.82l-2.46,1.42V172.9Z" style="fill:#fff"></path><path d="M264.1,239.35a.23.23,0,0,0-.25,0l-3,1.71a.26.26,0,0,0-.13.22v3.41a.26.26,0,0,0,.13.22l.12,0a.28.28,0,0,0,.13,0l3-1.71a.26.26,0,0,0,.13-.23v-3.4A.26.26,0,0,0,264.1,239.35Zm-.38.66v2.82l-2.45,1.41v-2.81Z" style="fill:#fff"></path><path d="M290,224.32a.3.3,0,0,0-.26,0l-3,1.71a.26.26,0,0,0-.13.22v3.41a.26.26,0,0,0,.13.22.28.28,0,0,0,.13,0,.27.27,0,0,0,.12,0l3-1.71a.28.28,0,0,0,.12-.23v-3.4A.27.27,0,0,0,290,224.32Zm-.38.66v2.82l-2.45,1.41V226.4Z" style="fill:#fff"></path><path d="M315.65,210.1a.23.23,0,0,0-.25,0l-3,1.71a.26.26,0,0,0-.12.22v3.4a.26.26,0,0,0,.12.22.23.23,0,0,0,.26,0l3-1.71a.25.25,0,0,0,.13-.22v-3.4A.25.25,0,0,0,315.65,210.1Zm-.38.66v2.81L312.82,215v-2.82Z" style="fill:#fff"></path><polygon points="314.05 163.32 314.06 165.79 261 196.21 260.99 193.74 314.05 163.32" style="fill:#fff"></polygon><polygon points="314.04 158.77 314.05 161.23 260.98 191.65 260.98 189.19 314.04 158.77" style="fill:#fff"></polygon><polygon points="281.98 171.91 281.99 174.38 260.97 186.54 260.96 184.07 281.98 171.91" style="fill:#fff"></polygon><path d="M178,193.68l-66.25,38a6.53,6.53,0,0,0-3.29,5.69l.21,95.15a2.19,2.19,0,0,0,3.28,1.89L178,296.34a6.57,6.57,0,0,0,3.27-5.68V195.57A2.18,2.18,0,0,0,178,193.68Z" style="fill:#407BFF"></path><path d="M139.29,225l1.92-1.1a.28.28,0,1,0-.28-.48L139,224.57a.27.27,0,0,0-.1.37.26.26,0,0,0,.23.13A.35.35,0,0,0,139.29,225Z" style="fill:#fff"></path><path d="M129.69,230.54l1.92-1.1a.27.27,0,0,0-.27-.47l-1.92,1.1a.28.28,0,0,0-.1.37.27.27,0,0,0,.24.14A.22.22,0,0,0,129.69,230.54Z" style="fill:#fff"></path><path d="M120.1,236.05,122,235a.27.27,0,0,0,.1-.37.27.27,0,0,0-.37-.11l-1.92,1.11a.27.27,0,0,0-.1.37.26.26,0,0,0,.24.13A.31.31,0,0,0,120.1,236.05Z" style="fill:#fff"></path><path d="M124.9,233.3l1.92-1.11a.27.27,0,0,0,.1-.37.29.29,0,0,0-.38-.1l-1.91,1.1a.27.27,0,0,0,.13.51A.35.35,0,0,0,124.9,233.3Z" style="fill:#fff"></path><path d="M134.49,227.79l1.92-1.1a.27.27,0,0,0-.27-.47l-1.92,1.1a.27.27,0,0,0-.1.37.27.27,0,0,0,.24.14A.22.22,0,0,0,134.49,227.79Z" style="fill:#fff"></path><path d="M163.27,211.28l1.92-1.11a.27.27,0,0,0,.1-.37.28.28,0,0,0-.37-.1L163,210.8a.27.27,0,0,0,.13.51A.32.32,0,0,0,163.27,211.28Z" style="fill:#fff"></path><path d="M148.88,219.53l1.92-1.1a.27.27,0,0,0-.27-.47l-1.92,1.1a.27.27,0,0,0-.1.37.27.27,0,0,0,.24.14A.22.22,0,0,0,148.88,219.53Z" style="fill:#fff"></path><path d="M158.47,214l1.92-1.1a.28.28,0,0,0,.1-.38.27.27,0,0,0-.37-.1l-1.92,1.1a.29.29,0,0,0-.1.38.28.28,0,0,0,.24.13A.31.31,0,0,0,158.47,214Z" style="fill:#fff"></path><path d="M167.93,208.56a.25.25,0,0,0,.14,0l1.92-1.1a.27.27,0,0,0,.1-.37.28.28,0,0,0-.38-.1l-1.91,1.1a.27.27,0,0,0,.13.51Z" style="fill:#fff"></path><path d="M153.68,216.78l1.92-1.1a.27.27,0,1,0-.28-.47l-1.91,1.1a.27.27,0,0,0,.13.51A.37.37,0,0,0,153.68,216.78Z" style="fill:#fff"></path><path d="M174,220.11a.28.28,0,0,0-.55,0v2.16a.28.28,0,0,0,.55,0Z" style="fill:#fff"></path><path d="M174,214.72a.28.28,0,1,0-.55,0v2.15a.28.28,0,1,0,.55,0Z" style="fill:#fff"></path><path d="M174,225.51a.28.28,0,1,0-.55,0v2.15a.28.28,0,1,0,.55,0Z" style="fill:#fff"></path><path d="M174,230.9a.28.28,0,0,0-.55,0v2.16a.28.28,0,0,0,.55,0Z" style="fill:#fff"></path><path d="M174,236.3a.28.28,0,1,0-.55,0v2.16a.28.28,0,0,0,.55,0Z" style="fill:#fff"></path><path d="M173.67,241.42a.27.27,0,0,0-.27.27v2.16a.28.28,0,0,0,.55,0v-2.16A.27.27,0,0,0,173.67,241.42Z" style="fill:#fff"></path><path d="M174,209.32a.28.28,0,0,0-.55,0v2.16a.28.28,0,0,0,.55,0Z" style="fill:#fff"></path><path d="M150.6,261.17l-1.91,1.1a.29.29,0,0,0-.1.38.28.28,0,0,0,.24.13.31.31,0,0,0,.13,0l1.92-1.11a.27.27,0,0,0,.1-.37A.28.28,0,0,0,150.6,261.17Z" style="fill:#fff"></path><path d="M121.92,277.71l-1.91,1.1a.27.27,0,0,0,.13.51.32.32,0,0,0,.14,0l1.91-1.11a.27.27,0,0,0,.1-.37A.27.27,0,0,0,121.92,277.71Z" style="fill:#fff"></path><path d="M126.7,275l-1.91,1.11a.27.27,0,0,0-.1.37.27.27,0,0,0,.24.14.33.33,0,0,0,.13,0l1.91-1.1a.28.28,0,0,0,.1-.38A.27.27,0,0,0,126.7,275Z" style="fill:#fff"></path><path d="M164.94,252.9,163,254a.29.29,0,0,0-.1.38.28.28,0,0,0,.24.13.31.31,0,0,0,.13,0l1.92-1.11a.27.27,0,0,0,.1-.37A.29.29,0,0,0,164.94,252.9Z" style="fill:#fff"></path><path d="M136.26,269.44l-1.91,1.1a.28.28,0,0,0-.1.38.28.28,0,0,0,.24.13.31.31,0,0,0,.13,0l1.91-1.11a.27.27,0,0,0-.27-.47Z" style="fill:#fff"></path><path d="M160.16,255.66l-1.91,1.1a.28.28,0,0,0-.1.37.27.27,0,0,0,.24.14.22.22,0,0,0,.13,0l1.92-1.1a.27.27,0,1,0-.28-.47Z" style="fill:#fff"></path><path d="M141,266.68l-1.91,1.11a.27.27,0,0,0-.1.37.27.27,0,0,0,.24.14.33.33,0,0,0,.13,0l1.92-1.1a.28.28,0,1,0-.28-.48Z" style="fill:#fff"></path><path d="M169.72,250.14l-1.91,1.11a.27.27,0,0,0-.1.37.27.27,0,0,0,.24.14.43.43,0,0,0,.14,0l1.91-1.1a.28.28,0,1,0-.28-.48Z" style="fill:#fff"></path><path d="M155.38,258.41l-1.91,1.11a.27.27,0,0,0-.1.37.27.27,0,0,0,.24.14.33.33,0,0,0,.13,0l1.92-1.1a.28.28,0,1,0-.28-.48Z" style="fill:#fff"></path><path d="M131.48,272.2l-1.91,1.1a.27.27,0,0,0,.14.51.22.22,0,0,0,.13,0l1.91-1.1a.27.27,0,0,0-.27-.47Z" style="fill:#fff"></path><path d="M116.23,258.27h0a.28.28,0,0,0-.27.28v2.16a.27.27,0,0,0,.27.27h0a.27.27,0,0,0,.27-.27v-2.16A.28.28,0,0,0,116.23,258.27Z" style="fill:#fff"></path><path d="M116.25,263.68h0a.27.27,0,0,0-.27.27v2.16a.27.27,0,0,0,.27.27h0a.27.27,0,0,0,.27-.27V264A.27.27,0,0,0,116.25,263.68Z" style="fill:#fff"></path><path d="M116.16,242.07h0a.27.27,0,0,0-.27.27v2.16a.27.27,0,0,0,.27.27h0a.27.27,0,0,0,.27-.27v-2.16A.27.27,0,0,0,116.16,242.07Z" style="fill:#fff"></path><path d="M116.3,274.48a.28.28,0,0,0-.27.28v2.16a.27.27,0,0,0,.27.27h0a.27.27,0,0,0,.27-.28v-2.16a.28.28,0,0,0-.28-.27Z" style="fill:#fff"></path><path d="M116.18,247.47h0a.27.27,0,0,0-.27.27v2.16a.28.28,0,0,0,.27.28h0a.29.29,0,0,0,.28-.28v-2.16A.28.28,0,0,0,116.18,247.47Z" style="fill:#fff"></path><path d="M116.21,252.87h0a.29.29,0,0,0-.28.28v2.16a.28.28,0,0,0,.28.27h0a.28.28,0,0,0,.27-.28v-2.16A.27.27,0,0,0,116.21,252.87Z" style="fill:#fff"></path><path d="M116.28,269.08h0a.26.26,0,0,0-.27.27v2.16a.28.28,0,0,0,.27.28h0a.28.28,0,0,0,.27-.28v-2.16A.27.27,0,0,0,116.28,269.08Z" style="fill:#fff"></path><path d="M118.85,235.34a.26.26,0,0,0-.27,0l-3.17,1.83a.27.27,0,0,0-.14.24v3.64a.29.29,0,0,0,.14.24.25.25,0,0,0,.27,0l3.18-1.83a.28.28,0,0,0,.13-.24v-3.65A.27.27,0,0,0,118.85,235.34Zm-.4.71v3l-2.63,1.52v-3Z" style="fill:#fff"></path><path d="M146.62,219.24a.26.26,0,0,0-.27,0l-3.17,1.83a.27.27,0,0,0-.14.24V225a.27.27,0,0,0,.14.24.25.25,0,0,0,.27,0l3.17-1.83a.27.27,0,0,0,.14-.24v-3.64A.27.27,0,0,0,146.62,219.24Zm-.4.71v3l-2.62,1.52v-3Z" style="fill:#fff"></path><path d="M170.64,210a.22.22,0,0,0,.13,0,.23.23,0,0,0,.14,0l3.17-1.83a.27.27,0,0,0,.14-.24v-3.64a.27.27,0,0,0-.14-.24.26.26,0,0,0-.27,0l-3.17,1.83a.27.27,0,0,0-.14.24v3.65A.25.25,0,0,0,170.64,210Zm3-5.24v3l-2.62,1.52v-3Z" style="fill:#fff"></path><path d="M118.85,277.41a.26.26,0,0,0-.27,0l-3.17,1.83a.27.27,0,0,0-.14.24v3.64a.29.29,0,0,0,.14.24.25.25,0,0,0,.27,0l3.18-1.83a.28.28,0,0,0,.13-.24v-3.65A.27.27,0,0,0,118.85,277.41Zm-.4.71v3l-2.63,1.52v-3Z" style="fill:#fff"></path><path d="M146.62,261.31a.26.26,0,0,0-.27,0l-3.17,1.83a.27.27,0,0,0-.14.24V267a.27.27,0,0,0,.14.24.25.25,0,0,0,.27,0l3.17-1.83a.27.27,0,0,0,.14-.24v-3.65A.27.27,0,0,0,146.62,261.31Zm-.4.71v3l-2.62,1.52v-3Z" style="fill:#fff"></path><path d="M174.07,246.07a.26.26,0,0,0-.27,0l-3.17,1.83a.27.27,0,0,0-.14.24v3.65a.27.27,0,0,0,.14.23.22.22,0,0,0,.13,0,.23.23,0,0,0,.14,0l3.17-1.83a.27.27,0,0,0,.14-.24v-3.64A.27.27,0,0,0,174.07,246.07Zm-.4.71v3l-2.62,1.51v-3Z" style="fill:#fff"></path><polygon points="174.22 263.93 174.23 266.4 116.04 300.28 116.03 297.82 174.22 263.93" style="fill:#fff"></polygon><polygon points="174.21 259.38 174.22 261.83 116.02 295.72 116.02 293.26 174.21 259.38" style="fill:#fff"></polygon><polygon points="174.22 273.21 174.23 275.67 116.04 309.56 116.03 307.09 174.22 273.21" style="fill:#fff"></polygon><polygon points="174.21 268.65 174.22 271.11 116.02 305 116.02 302.54 174.21 268.65" style="fill:#fff"></polygon><polygon points="149.78 296.91 149.79 299.38 116.04 319.02 116.03 316.56 149.78 296.91" style="fill:#fff"></polygon><polygon points="174.21 278.12 174.22 280.57 116.02 314.46 116.02 312 174.21 278.12" style="fill:#fff"></polygon><polygon points="131.12 279.25 131.13 281.72 116.01 290.61 116 288.15 131.12 279.25" style="fill:#fff"></polygon><path d="M191.86,291.13l53.84-31.08a8.73,8.73,0,0,0,4.36-7.56V188.61a3.28,3.28,0,0,0-4.91-2.84l-53.83,31.08a8.75,8.75,0,0,0-4.37,7.57v63.87A3.28,3.28,0,0,0,191.86,291.13Z" style="fill:#407BFF"></path><polygon points="219.77 263.48 219.78 265.95 192.75 281.5 192.74 279.04 219.77 263.48" style="fill:#fff"></polygon><polygon points="245.79 244.06 245.79 246.52 192.73 276.94 192.72 274.48 245.79 244.06" style="fill:#fff"></polygon><polygon points="232.73 246.1 232.74 248.56 192.72 271.83 192.71 269.36 232.73 246.1" style="fill:#fff"></polygon><polygon points="229.22 229.32 237.63 224.46 229.24 238.97 229.22 229.32" style="fill:#e0e0e0"></polygon><polygon points="237.56 202.45 237.63 224.46 229.22 229.32 229.24 238.97 237.63 224.46 229.24 238.97 199.48 256.16 199.39 224.49 237.56 202.45" style="fill:#fff"></polygon><path d="M325.8,76.64c0-2.38-.85-4-2.2-4.86l0,0-.05,0c-1.39-.78-3.29-.66-5.38.55l-211.92,122a16.79,16.79,0,0,0-7.61,13.18l0,9.88L325.82,86.26Z" style="fill:#407BFF"></path><path d="M325.8,76.64c0-2.38-.85-4-2.2-4.86l0,0-.05,0c-1.39-.78-3.29-.66-5.38.55l-211.92,122a16.79,16.79,0,0,0-7.61,13.18l0,9.88L325.82,86.26Z" style="opacity:0.30000000000000004"></path><g style="opacity:0.5"><path d="M108.7,201.23c1.15-.66,2.09-.13,2.09,1.19a4.59,4.59,0,0,1-2.07,3.59c-1.15.67-2.09.13-2.09-1.19A4.55,4.55,0,0,1,108.7,201.23Z" style="fill:#fff"></path><path d="M114.39,198c1.14-.66,2.08-.13,2.08,1.19a4.54,4.54,0,0,1-2.07,3.59c-1.15.67-2.08.13-2.09-1.19A4.58,4.58,0,0,1,114.39,198Z" style="fill:#fff"></path><path d="M120.07,194.67c1.15-.66,2.08-.13,2.09,1.19a4.58,4.58,0,0,1-2.08,3.59c-1.15.66-2.08.13-2.09-1.19A4.58,4.58,0,0,1,120.07,194.67Z" style="fill:#fff"></path></g><path d="M108.7,201.23c1.15-.66,2.09-.13,2.09,1.19a4.59,4.59,0,0,1-2.07,3.59c-1.15.67-2.09.13-2.09-1.19A4.55,4.55,0,0,1,108.7,201.23Z" style="fill:#407BFF"></path><path d="M114.39,198c1.14-.66,2.08-.13,2.08,1.19a4.54,4.54,0,0,1-2.07,3.59c-1.15.67-2.08.13-2.09-1.19A4.58,4.58,0,0,1,114.39,198Z" style="fill:#407BFF"></path><path d="M120.07,194.67c1.15-.66,2.08-.13,2.09,1.19a4.58,4.58,0,0,1-2.08,3.59c-1.15.66-2.08.13-2.09-1.19A4.58,4.58,0,0,1,120.07,194.67Z" style="fill:#407BFF"></path><g style="opacity:0.30000000000000004"><path d="M101.36,383h0l-.06,0Z" style="fill:#fff"></path><path d="M323.61,71.78l0,0,0,0Z" style="fill:#fff"></path><path d="M325.8,76.64c0-2.38-.85-4-2.2-4.86l0,0-.05,0a4,4,0,0,0-1.76-.49,4,4,0,0,1,1.76.49l-8-4.63h0c-1.4-.89-3.37-.81-5.55.45L98.07,189.6c-.28.16-.55.34-.83.53l-.25.19c-.18.13-.37.27-.55.42l-.28.25c-.17.14-.33.29-.5.45l-.26.27c-.17.16-.33.33-.48.5s-.17.19-.25.28-.31.37-.47.56l-.21.27c-.16.21-.31.43-.46.64l-.17.25c-.17.24-.32.49-.48.75a1.63,1.63,0,0,1-.11.17c-.18.32-.36.64-.52,1h0c-.1.2-.19.4-.28.6a2.39,2.39,0,0,0-.13.28c-.08.18-.16.36-.23.54l-.15.35-.18.51-.13.4-.15.47-.12.46c0,.14-.07.29-.1.43s-.07.33-.1.5,0,.26-.07.39,0,.38-.07.57l0,.31q0,.43,0,.87l.38,170.49c0,2.28.78,3.92,2,4.76h0a3.58,3.58,0,0,0,.42.25l7.87,4.58.12.07.06,0c1.38.72,3.24.59,5.29-.6l211.92-122a16.8,16.8,0,0,0,7.61-13.18Z" style="fill:#fff"></path></g><path d="M417.7,181.93V178.2a5.06,5.06,0,0,0-2.32-4l-67.15-38.78a1.62,1.62,0,0,0-1.69-.13h0l-2.27,1.64s1.48.92,1.48,1l.15,0v5.27l69.6,40.18Z" style="fill:#407BFF"></path><path d="M417.7,181.93V178.2a5.06,5.06,0,0,0-2.32-4l-67.15-38.78a1.62,1.62,0,0,0-1.69-.13h0l-2.27,1.64s1.48.92,1.48,1l.15,0v5.27l69.6,40.18Z" style="fill:#fff;opacity:0.7000000000000001"></path><path d="M415.49,183.3l-69.6-40.18-.13,47.74a5.08,5.08,0,0,0,2.31,4L414.19,233l-.6.76,1.11,1.58,2.26-1.63h0a1.64,1.64,0,0,0,.61-1.42l.14-50.39Z" style="fill:#37474f"></path><path d="M413.18,175.79a5.13,5.13,0,0,1,2.32,4v3.5l-71.81-41.46v-3.5c0-1.47,1.05-2.06,2.33-1.32Z" style="fill:#407BFF"></path><g style="opacity:0.5"><path d="M413.18,175.79a5.13,5.13,0,0,1,2.32,4v3.5l-71.81-41.46v-3.5c0-1.47,1.05-2.06,2.33-1.32Z" style="fill:#fff"></path></g><path d="M415.49,183.3l-.15,50.62c0,1.47-1,2.06-2.33,1.32l-67.16-38.77a5.08,5.08,0,0,1-2.31-4l.14-50.62Z" style="fill:#455a64"></path><polygon points="367.26 197.33 367.25 199.44 347.32 187.94 347.32 185.82 367.26 197.33" style="fill:#407BFF"></polygon><polygon points="411.86 191.67 411.86 193.79 360.56 164.17 360.57 162.06 411.86 191.67" style="fill:#407BFF"></polygon><polygon points="367.36 161.42 367.35 163.53 347.42 152.02 347.43 149.91 367.36 161.42" style="fill:#407BFF"></polygon><g style="opacity:0.5"><polygon points="367.26 197.33 367.25 199.44 347.32 187.94 347.32 185.82 367.26 197.33" style="fill:#fff"></polygon><polygon points="411.86 191.67 411.86 193.79 360.56 164.17 360.57 162.06 411.86 191.67" style="fill:#fff"></polygon><polygon points="367.36 161.42 367.35 163.53 347.42 152.02 347.43 149.91 367.36 161.42" style="fill:#fff"></polygon><polygon points="367.3 184.25 367.29 186.36 347.36 174.85 347.36 172.74 367.3 184.25" style="fill:#fff"></polygon><polygon points="361.32 171.67 361.32 173.78 347.38 165.74 347.39 163.62 361.32 171.67" style="fill:#fff"></polygon><polygon points="386.11 212.79 386.11 214.89 360.46 200.09 360.47 197.98 386.11 212.79" style="fill:#fff"></polygon><polygon points="392.53 207.33 392.52 209.45 360.49 190.95 360.49 188.84 392.53 207.33" style="fill:#fff"></polygon><polygon points="376.43 175.18 376.42 177.29 360.55 168.13 360.56 166.01 376.43 175.18" style="fill:#fff"></polygon><polygon points="399.63 198.35 399.62 200.46 360.52 177.89 360.53 175.77 399.63 198.35" style="fill:#fff"></polygon><polygon points="411.8 214.51 411.79 216.62 360.5 187 360.5 184.89 411.8 214.51" style="fill:#fff"></polygon></g><path d="M75.8,350.7V347a5.12,5.12,0,0,1,2.32-4l67.16-38.78a1.59,1.59,0,0,1,1.69-.12h0l2.27,1.64s-1.48.92-1.48,1-.06,0-.15,0v5.27L78,352.07Z" style="fill:#407BFF"></path><path d="M75.8,350.7V347a5.12,5.12,0,0,1,2.32-4l67.16-38.78a1.59,1.59,0,0,1,1.69-.12h0l2.27,1.64s-1.48.92-1.48,1-.06,0-.15,0v5.27L78,352.07Z" style="fill:#fff;opacity:0.30000000000000004"></path><path d="M78,352.07l69.59-40.18.14,47.74a5.12,5.12,0,0,1-2.31,4L79.31,401.81l.61.76-1.11,1.58-2.26-1.63h0a1.67,1.67,0,0,1-.62-1.43L75.8,350.7Z" style="fill:#37474f"></path><path d="M80.33,344.56a5.1,5.1,0,0,0-2.32,4v3.5l71.8-41.46v-3.5c0-1.47-1-2.06-2.32-1.32Z" style="fill:#407BFF"></path><g style="opacity:0.1"><path d="M80.33,344.56a5.1,5.1,0,0,0-2.32,4v3.5l71.8-41.46v-3.5c0-1.47-1-2.06-2.32-1.32Z" style="fill:#fff"></path></g><path d="M78,352.07l.14,50.62c0,1.47,1,2.06,2.34,1.32l67.15-38.77a5.09,5.09,0,0,0,2.32-4l-.15-50.62Z" style="fill:#455a64"></path><polygon points="81.75 392.18 81.75 394.3 101.69 382.79 101.68 380.67 81.75 392.18" style="fill:#407BFF"></polygon><polygon points="81.71 379.1 81.72 381.21 101.65 369.7 101.64 367.59 81.71 379.1" style="fill:#407BFF"></polygon><polygon points="81.71 370.11 81.72 372.22 95.65 364.17 95.64 362.06 81.71 370.11" style="fill:#407BFF"></polygon><polygon points="95.69 388.3 95.7 390.41 121.34 375.6 121.34 373.5 95.69 388.3" style="fill:#407BFF"></polygon><polygon points="95.75 379.24 95.76 381.35 127.8 362.86 127.79 360.74 95.75 379.24" style="fill:#407BFF"></polygon><polygon points="94.58 357.06 94.59 359.17 110.46 350.01 110.45 347.89 94.58 357.06" style="fill:#407BFF"></polygon><polygon points="95.78 365.62 95.79 367.73 134.89 345.15 134.88 343.04 95.78 365.62" style="fill:#407BFF"></polygon><polygon points="95.75 375.44 95.76 377.56 147.06 347.94 147.05 345.83 95.75 375.44" style="fill:#407BFF"></polygon><polygon points="94.52 353.27 94.53 355.39 145.82 325.77 145.81 323.66 94.52 353.27" style="fill:#407BFF"></polygon><polygon points="81.64 356.27 81.65 358.38 101.58 346.87 101.58 344.76 81.64 356.27" style="fill:#407BFF"></polygon><g style="opacity:0.5"><polygon points="81.75 392.18 81.75 394.3 101.69 382.79 101.68 380.67 81.75 392.18" style="fill:#fff"></polygon><polygon points="81.71 379.1 81.72 381.21 101.65 369.7 101.64 367.59 81.71 379.1" style="fill:#fff"></polygon><polygon points="81.71 370.11 81.72 372.22 95.65 364.17 95.64 362.06 81.71 370.11" style="fill:#fff"></polygon><polygon points="95.69 388.3 95.7 390.41 121.34 375.6 121.34 373.5 95.69 388.3" style="fill:#fff"></polygon><polygon points="95.75 379.24 95.76 381.35 127.8 362.86 127.79 360.74 95.75 379.24" style="fill:#fff"></polygon><polygon points="94.58 357.06 94.59 359.17 110.46 350.01 110.45 347.89 94.58 357.06" style="fill:#fff"></polygon><polygon points="95.78 365.62 95.79 367.73 134.89 345.15 134.88 343.04 95.78 365.62" style="fill:#fff"></polygon><polygon points="95.75 375.44 95.76 377.56 147.06 347.94 147.05 345.83 95.75 375.44" style="fill:#fff"></polygon><polygon points="94.52 353.27 94.53 355.39 145.82 325.77 145.81 323.66 94.52 353.27" style="fill:#fff"></polygon><polygon points="81.64 356.27 81.65 358.38 101.58 346.87 101.58 344.76 81.64 356.27" style="fill:#fff"></polygon></g><path d="M262,323.28l-.08-29.63a4.3,4.3,0,0,1,2-3.41L304.8,266.6a1.4,1.4,0,0,1,1.36-.15l-2.55-1.53h0a1.4,1.4,0,0,0-1.37.15l-40.93,23.64a4.32,4.32,0,0,0-2,3.41l.08,29.63A1.36,1.36,0,0,0,260,323l2.55,1.53h0A1.4,1.4,0,0,1,262,323.28Z" style="fill:#455a64"></path><path d="M306.78,267.73a1.39,1.39,0,0,0-.48-1.18l-.06-.06-.08,0a1.4,1.4,0,0,0-1.36.15l-40.94,23.64a4.3,4.3,0,0,0-2,3.41l.08,29.63a1.4,1.4,0,0,0,.56,1.26,1.37,1.37,0,0,0,1.43-.12l40.94-23.64a4.36,4.36,0,0,0,2-3.42Z" style="fill:#455a64"></path><path d="M262,323.28l-.08-29.63a4.3,4.3,0,0,1,2-3.41L304.8,266.6a1.4,1.4,0,0,1,1.36-.15l-2.55-1.53h0a1.4,1.4,0,0,0-1.37.15l-40.93,23.64a4.32,4.32,0,0,0-2,3.41l.08,29.63A1.36,1.36,0,0,0,260,323l2.55,1.53h0A1.4,1.4,0,0,1,262,323.28Z" style="opacity:0.30000000000000004"></path><polygon points="279.78 293.57 279.78 295.81 271.46 304.32 279.8 303.2 279.81 305.44 269.27 306.74 269.27 304.42 279.78 293.57" style="fill:#f5f5f5"></polygon><polygon points="290.45 280.06 282.78 309.94 280.74 311.13 288.41 281.24 290.45 280.06" style="fill:#f5f5f5"></polygon><polygon points="291.18 286.99 301.71 285.69 301.72 288.01 291.22 298.86 291.21 296.62 299.56 288.09 291.19 289.23 291.18 286.99" style="fill:#f5f5f5"></polygon><polygon points="296.5 191.05 306.81 199.16 306.83 207.09 272.55 226.88 272.53 218.95 279.06 205.98 284.93 210.53 282.85 216.98 285.86 211.25 296.5 191.05" style="fill:#fff"></polygon><path d="M285.24,195c1.61-.93,2.93-.18,2.93,1.67a6.41,6.41,0,0,1-2.91,5c-1.61.93-2.93.18-2.93-1.67A6.41,6.41,0,0,1,285.24,195Z" style="fill:#fff"></path><polygon points="153.56 225.67 164.6 234.36 164.63 242.85 127.9 264.05 127.88 255.56 134.88 241.66 141.16 246.54 138.94 253.44 142.16 247.31 153.56 225.67" style="fill:#fff"></polygon><path d="M141.5,230c1.73-1,3.13-.2,3.14,1.79a6.89,6.89,0,0,1-3.12,5.4c-1.73,1-3.13.2-3.14-1.79A6.84,6.84,0,0,1,141.5,230Z" style="fill:#fff"></path><polygon points="367.3 184.25 367.29 186.36 347.36 174.85 347.36 172.74 367.3 184.25" style="fill:#407BFF"></polygon><polygon points="361.32 171.67 361.32 173.78 347.38 165.74 347.39 163.62 361.32 171.67" style="fill:#407BFF"></polygon><polygon points="386.11 212.79 386.11 214.89 360.46 200.09 360.47 197.98 386.11 212.79" style="fill:#407BFF"></polygon><polygon points="392.53 207.33 392.52 209.45 360.49 190.95 360.49 188.84 392.53 207.33" style="fill:#407BFF"></polygon><polygon points="376.43 175.18 376.42 177.29 360.55 168.13 360.56 166.01 376.43 175.18" style="fill:#407BFF"></polygon><polygon points="399.63 198.35 399.62 200.46 360.52 177.89 360.53 175.77 399.63 198.35" style="fill:#407BFF"></polygon><polygon points="411.8 214.51 411.79 216.62 360.5 187 360.5 184.89 411.8 214.51" style="fill:#407BFF"></polygon></g><g id="freepik--character-2--inject-16"><path d="M360.55,298c-7,4.85-14.85,8.21-20.69,14.71-10.89,12.15-11.15,31.69-2.59,45.59s24.48,22.24,40.68,24.15c17,2,34.85-2.69,48.19-13.42S448,341.5,448,324.37s-8.77-34.17-23.11-43.52c-13.09-8.53-31.89-11-45-1.2-6.63,4.93-11.06,12.22-17.68,17.17Z" style="fill:#455a64"></path><path d="M360.55,298c-7,4.85-14.85,8.21-20.69,14.71-10.89,12.15-11.15,31.69-2.59,45.59s24.48,22.24,40.68,24.15c17,2,34.85-2.69,48.19-13.42S448,341.5,448,324.37s-8.77-34.17-23.11-43.52c-13.09-8.53-31.89-11-45-1.2-6.63,4.93-11.06,12.22-17.68,17.17Z" style="fill:#fff;opacity:0.30000000000000004"></path><path d="M363.4,369.15c0-.12,0-.23.05-.35a18.38,18.38,0,0,1,14.9-15.32,58.22,58.22,0,0,0,19.08-7.31c4.17-2.52,8.12-5.61,12.79-7A20.86,20.86,0,0,1,424,340,16,16,0,0,0,408,335.91c3.73-5.71,7-11.86,8.29-18.55s.38-14.05-3.66-19.54a19.65,19.65,0,0,0-30.35-1.62c-4,4.37-6.25,10.53-8.88,15.84-1.88,3.82-3.83,7.72-6.94,10.63-4.69,4.39-11.44,6-16.3,10.17-5.52,4.75-7.9,12.36-7.92,19.65A57.94,57.94,0,0,0,344.32,367a55.44,55.44,0,0,0,19.95,12.2A21.58,21.58,0,0,1,363.4,369.15Z" style="opacity:0.1"></path><path d="M438.84,322a50,50,0,0,0-42.63-48.51,35.39,35.39,0,0,0-4.82.81,48.7,48.7,0,0,1,46.13,47.73c.31,15.93-7.48,32.18-20.85,43.45-10.48,8.83-24.4,14.69-39.69,16.8l1,.12c1.38.16,2.76.28,4.14.35,13.59-2.63,25.9-8.23,35.43-16.27C431.19,355,439.16,338.35,438.84,322Z" style="fill:#fff"></path><path d="M345.59,363.82a48.92,48.92,0,0,1,.85,7.95l1.89-.71a4.86,4.86,0,0,1,5.24,1.2l.09.09a1.89,1.89,0,0,0,2.62.12h0a1.87,1.87,0,0,0,.65-1.37l.26-8Z" style="fill:#ffa8a7"></path><path d="M352.87,393.66c-3.91,4.19-11.12,7.85-16.36,4.28l.59,1.33c5.24,3.57,12.45-.09,16.36-4.28s1.37-7.08,4.9-10.8a12.83,12.83,0,0,0,3-4.52c-.15-.4-.3-.92-.49-1.52a15.94,15.94,0,0,1-3.14,4.71C354.25,386.57,356.79,389.47,352.87,393.66Z" style="fill:#263238"></path><path d="M359,373.77a7.56,7.56,0,0,1-1.23-2.85,1.67,1.67,0,0,0-.77-1.17l-.05,1.35a1.87,1.87,0,0,1-.65,1.37,1.89,1.89,0,0,1-2.62-.12l-.09-.09a4.86,4.86,0,0,0-5.24-1.2l-1.92.72a1.47,1.47,0,0,0-1,1.41c.12,5.5-2.44,12.79-5.13,16.79-2.77,1.15-5.16,4.92-3.94,7.68l.12.28c5.24,3.57,12.45-.09,16.36-4.28s1.38-7.09,4.9-10.8a15.94,15.94,0,0,0,3.14-4.71A17.21,17.21,0,0,0,359,373.77Z" style="fill:#37474f"></path><path d="M351.32,381.7a.67.67,0,0,0,.62-1.19,7.66,7.66,0,0,0-7.52,0c-.12.44-.24.87-.37,1.29A7.37,7.37,0,0,1,351.32,381.7Z" style="fill:#fff"></path><path d="M352.29,378.73a.66.66,0,0,0,.89-.3.67.67,0,0,0-.28-.89,8,8,0,0,0-7.82.07c-.08.44-.17.89-.27,1.34A7.46,7.46,0,0,1,352.29,378.73Z" style="fill:#fff"></path><path d="M350.27,384.65a.66.66,0,0,0,.61-1.18,7.62,7.62,0,0,0-7.36-.08c-.16.47-.34.92-.52,1.37A7.37,7.37,0,0,1,350.27,384.65Z" style="fill:#fff"></path><path d="M340.33,390c-2.77,1.15-5.16,4.92-3.94,7.68l.12.28c5.16,3.52,12.23,0,16.18-4.09C349.39,387.38,342.5,389,340.33,390Z" style="fill:#fff"></path><path d="M349.11,387.54a.68.68,0,0,0,.89-.3.67.67,0,0,0-.28-.89,7.64,7.64,0,0,0-7.37-.07c-.23.52-.48,1-.72,1.48A7.43,7.43,0,0,1,349.11,387.54Z" style="fill:#fff"></path><path d="M337.36,379.78a48.1,48.1,0,0,1-2.43,7.62l2,.11a4.89,4.89,0,0,1,4.32,3.21l0,.13a1.9,1.9,0,0,0,2.35,1.16h0a1.85,1.85,0,0,0,1.15-1l3.47-7.24Z" style="fill:#ffa8a7"></path><path d="M332,410c-5.27,2.25-13.34,2.69-16.69-2.7v1.46c3.35,5.38,11.42,4.94,16.69,2.69s4.12-5.93,8.84-7.91a12.72,12.72,0,0,0,4.61-2.91c0-.42.09-1,.17-1.58a16.29,16.29,0,0,1-4.78,3C336.1,404.1,337.25,407.77,332,410Z" style="fill:#263238"></path><path d="M345.6,394.29a7.66,7.66,0,0,1,0-3.1,1.64,1.64,0,0,0-.24-1.38L344.8,391a1.9,1.9,0,0,1-3.5-.17l0-.13a4.89,4.89,0,0,0-4.32-3.21l-2-.11a1.47,1.47,0,0,0-1.44.91c-2.11,5.07-7.4,10.71-11.47,13.29-3-.07-6.7,2.41-6.7,5.43v.3c3.35,5.39,11.42,4.95,16.69,2.7s4.12-5.93,8.84-7.91a16.29,16.29,0,0,0,4.78-3A17.67,17.67,0,0,0,345.6,394.29Z" style="fill:#37474f"></path><path d="M335.39,398.46a.67.67,0,0,0,.94.08.66.66,0,0,0,.1-.92,7.64,7.64,0,0,0-6.88-3c-.28.35-.57.7-.86,1A7.37,7.37,0,0,1,335.39,398.46Z" style="fill:#fff"></path><path d="M337.47,396.13a.67.67,0,0,0,.94.08.66.66,0,0,0,.1-.92,8,8,0,0,0-7.18-3.1c-.25.38-.52.75-.79,1.12A7.44,7.44,0,0,1,337.47,396.13Z" style="fill:#fff"></path><path d="M333.23,400.73a.67.67,0,0,0,1-.84,7.62,7.62,0,0,0-6.7-3c-.34.35-.68.7-1,1A7.36,7.36,0,0,1,333.23,400.73Z" style="fill:#fff"></path><path d="M322,401.6c-3-.07-6.7,2.41-6.7,5.43v.3c3.3,5.31,11.18,4.95,16.45,2.79C331.33,402.88,324.38,401.57,322,401.6Z" style="fill:#fff"></path><path d="M331,402.9a.67.67,0,0,0,1-.83,7.62,7.62,0,0,0-6.72-3c-.42.37-.84.73-1.25,1.06A7.45,7.45,0,0,1,331,402.9Z" style="fill:#fff"></path><path d="M368.33,311.21l-26.39,14.71a13.09,13.09,0,0,0-6.49,13.81l5.12,27.58-4.2,13.34c3.63,4.86,11.95,5.11,11.95,5.11,4.64-9.31,8-13.26,10.68-21.06s4.39-13.18,4.39-13.18l21.91-6a26,26,0,0,0,19-22.09c.37-3.32.39-5.58.39-5.58Z" style="fill:#455a64"></path><path d="M368.53,318.63a12.47,12.47,0,0,0,3,8l-18.62,11.65a13.42,13.42,0,0,0-5.7,7.44l-6.59,21.55,5.95-24a10.85,10.85,0,0,1,4.84-6.64L368.55,326C366.79,321.65,368.53,318.63,368.53,318.63Z" style="opacity:0.2"></path><path d="M348.63,282.7l-3.7,3.58c-3.79-4.84-8.88-8.12-13.33-14.91-1.29-1.62-1.15-4.86-2-6.51-.69-1.3-1.88-3.25-2.38-4.33a.72.72,0,0,0-1.06-.32c-1.27.92-.6,3.11.06,5.43.78,2.7-3.3-1-3.85-1.59-2.59-2.41-4.82-8.32-6.59-7.73s-.36,3.53-.36,3.53c-1.63.35-1,2.94-1,2.94-1,1.7-.69,4.31,1.28,6.75,1.44,1.76,5.32,4.18,7.33,5.38a6.41,6.41,0,0,1,2.1,2l12.68,18.83a7.68,7.68,0,0,0,11,1.87l6.89-5.15Z" style="fill:#ffa8a7"></path><path d="M370.08,266.07c-7-.31-16.55,11.08-21.92,16.45.41,6.56,7.48,10.88,7.48,10.88a154.16,154.16,0,0,0,14.44-11.29Z" style="fill:#407BFF"></path><path d="M370.08,266.07c-7-.31-16.55,11.08-21.92,16.45.41,6.56,7.48,10.88,7.48,10.88a154.16,154.16,0,0,0,14.44-11.29Z" style="opacity:0.5"></path><path d="M405.1,319.92c-4.68,4.5-27.16,5.32-38.63-5.6,1.1-7.71.73-16,0-24.13s-5.51-22.46,3.61-24.12c12.17-2.38,20.13-2.19,28.26,2.4C407,282.94,405.84,304.59,405.1,319.92Z" style="fill:#407BFF"></path><path d="M405.1,319.92c-4.68,4.5-27.16,5.32-38.63-5.6,1.1-7.71.73-16,0-24.13s-5.51-22.46,3.61-24.12c12.17-2.38,20.13-2.19,28.26,2.4C407,282.94,405.84,304.59,405.1,319.92Z" style="fill:#407BFF"></path><path d="M405.1,319.92c-4.68,4.5-27.16,5.32-38.63-5.6,1.1-7.71.73-16,0-24.13s-5.51-22.46,3.61-24.12c12.17-2.38,20.13-2.19,28.26,2.4C407,282.94,405.84,304.59,405.1,319.92Z" style="opacity:0.30000000000000004"></path><path d="M392.52,247.68a3.32,3.32,0,0,0-1.63-1.71,2.5,2.5,0,0,0-.48-.18,3,3,0,0,0-2.71.91,5.24,5.24,0,0,0-1.32,2.62,22.52,22.52,0,0,0-.33,3,35.28,35.28,0,0,1-.81,5.21,6.63,6.63,0,0,1-3.38,4.41l-.11.06a20.55,20.55,0,0,1-7.88,2.1v3c-2.17,2.95-2.78,8.61,2.95,6.92s9.45-5.5,9.45-9.25c0-1.58.08-3.61.12-5.42.05-2.45.1-4.49.1-4.49a3.22,3.22,0,0,0,2.09,1.09,2.69,2.69,0,0,0,1.1-.06,4.11,4.11,0,0,0,2.45-2.09,7.72,7.72,0,0,0,.78-3.18A6.43,6.43,0,0,0,392.52,247.68Z" style="fill:#ffa8a7"></path><path d="M390.66,237.34a7.06,7.06,0,0,0-4.5-2.39l-23.52,2.18c-2.72,5.75-.55,9.55-.55,9.55-.37,8.77-.67,14.34,3.19,16.18a18,18,0,0,0,8.59,1.2,20.55,20.55,0,0,0,7.88-2.1l.12-.06a6.66,6.66,0,0,0,3.37-4.43,35,35,0,0,0,.81-5.19,22.52,22.52,0,0,1,.33-3,5.24,5.24,0,0,1,1.32-2.62,3,3,0,0,1,2.71-.91,2.5,2.5,0,0,1,.48.18C391.56,242.08,391.76,238.7,390.66,237.34Z" style="fill:#37474f"></path><path d="M382.05,238a8.07,8.07,0,0,0,.31,4.92,35.82,35.82,0,0,1,1.49,4.79,7.79,7.79,0,0,1-.64,4.83,5.69,5.69,0,0,1-3.75,3c-2.53.54-5-.93-7.53-1.43a10.54,10.54,0,0,0-7.08,1.26,1.23,1.23,0,0,1-1.85-1c-.3-5-.3-12.95.45-16.67Z" style="fill:#ffa8a7"></path><path d="M363.85,233.44l-2.93-2a6.21,6.21,0,0,0,1.12,5.75,9.33,9.33,0,0,0,5.15,3,19.6,19.6,0,0,0,6.07.27,44.91,44.91,0,0,0,8.75-1.59,7.12,7.12,0,0,0,3.44-1.81,4.56,4.56,0,0,0,.18-5.36,6.82,6.82,0,0,0-4.84-2.8,18.47,18.47,0,0,0-5.82.46,17.61,17.61,0,0,1-5.82.42,6.08,6.08,0,0,1-4.69-3.11C362.81,229.35,363.85,233.44,363.85,233.44Z" style="fill:#37474f"></path><polygon points="371.23 246.96 366.94 252.15 370.87 253.54 371.23 246.96" style="fill:#f28f8f"></polygon><path d="M374.47,256.12l-3.31,1a2,2,0,0,0,2.23,1A1.85,1.85,0,0,0,374.47,256.12Z" style="fill:#f28f8f"></path><path d="M374.47,256.12l-3.31,1a2,2,0,0,0,2.23,1A1.85,1.85,0,0,0,374.47,256.12Z" style="opacity:0.30000000000000004"></path><path d="M372.31,258.1a1.91,1.91,0,0,0,1.08.07,1.66,1.66,0,0,0,1.08-1.5,2,2,0,0,0-1.28.23A2,2,0,0,0,372.31,258.1Z" style="fill:#f28f8f"></path><path d="M377.06,248.09a1.18,1.18,0,1,1-1.11-1.24A1.18,1.18,0,0,1,377.06,248.09Z" style="fill:#263238"></path><path d="M367.2,247.18a1.18,1.18,0,1,1-1.11-1.24A1.18,1.18,0,0,1,367.2,247.18Z" style="fill:#263238"></path><path d="M366.31,242.44l-2.71,1.66a1.7,1.7,0,0,1,.61-1.82A2,2,0,0,1,366.31,242.44Z" style="fill:#263238"></path><path d="M376.39,242.84l2.51,1.94a1.65,1.65,0,0,0-.41-1.87A2,2,0,0,0,376.39,242.84Z" style="fill:#263238"></path><path d="M383.33,261.8A7.39,7.39,0,0,0,384.7,259a6.59,6.59,0,0,1-2.84,2.95l-.11.06a20.55,20.55,0,0,1-7.88,2.1v2a19.85,19.85,0,0,0,4.65-1A10.51,10.51,0,0,0,383.33,261.8Z" style="opacity:0.2"></path><path d="M387,329.61a1,1,0,0,1,0,.35,0,0,0,0,0,0,0,1.16,1.16,0,0,1-.14.27,0,0,0,0,1,0,0,1.45,1.45,0,0,1-.24.26v0a2.53,2.53,0,0,1-.36.25l-19.31,11.23a4.56,4.56,0,0,1-.55.24l-.22.06-.28.07a2,2,0,0,1-.34.06h-.08l-.48,0h-.07a3.71,3.71,0,0,1-.47,0h-.07l-.45-.08-.08,0a2.91,2.91,0,0,1-.39-.12l-.07,0-.43-.2L331,323.65a2.07,2.07,0,0,1-.36-.25l-.1-.1a1.46,1.46,0,0,1-.16-.19s0-.08-.07-.12a1.51,1.51,0,0,1-.09-.18s0-.09,0-.13a1.13,1.13,0,0,1,0-.18v1.13a1.13,1.13,0,0,0,0,.18s0,.09,0,.13a1.51,1.51,0,0,0,.09.18s0,.08.07.12a1.46,1.46,0,0,0,.16.19l.1.1a2.07,2.07,0,0,0,.36.25l31.85,18.4.43.2.07,0a2.91,2.91,0,0,0,.39.12l.08,0,.45.08h.07a3.71,3.71,0,0,0,.47,0h.07l.48,0h.08a2,2,0,0,0,.34-.06l.28-.07.22-.06a4.56,4.56,0,0,0,.55-.24L386.15,332a2.53,2.53,0,0,0,.36-.25v0a1.45,1.45,0,0,0,.24-.26,0,0,0,0,0,0,0,1.16,1.16,0,0,0,.14-.27,0,0,0,0,1,0,0,1.06,1.06,0,0,0,0-.25h0v-1.22Z" style="fill:#e0e0e0"></path><path d="M387,329.61a1,1,0,0,1,0,.35,0,0,0,0,0,0,0,1.16,1.16,0,0,1-.14.27,0,0,0,0,1,0,0,1.45,1.45,0,0,1-.24.26v0a2.53,2.53,0,0,1-.36.25l-19.31,11.23a4.56,4.56,0,0,1-.55.24l-.22.06-.28.07a2,2,0,0,1-.34.06h-.08l-.48,0h-.07a3.71,3.71,0,0,1-.47,0h-.07l-.45-.08-.08,0a2.91,2.91,0,0,1-.39-.12l-.07,0-.43-.2L331,323.65a2.07,2.07,0,0,1-.36-.25l-.1-.1a1.46,1.46,0,0,1-.16-.19s0-.08-.07-.12a1.51,1.51,0,0,1-.09-.18s0-.09,0-.13a1.13,1.13,0,0,1,0-.18v1.13a1.13,1.13,0,0,0,0,.18s0,.09,0,.13a1.51,1.51,0,0,0,.09.18s0,.08.07.12a1.46,1.46,0,0,0,.16.19l.1.1a2.07,2.07,0,0,0,.36.25l31.85,18.4.43.2.07,0a2.91,2.91,0,0,0,.39.12l.08,0,.45.08h.07a3.71,3.71,0,0,0,.47,0h.07l.48,0h.08a2,2,0,0,0,.34-.06l.28-.07.22-.06a4.56,4.56,0,0,0,.55-.24L386.15,332a2.53,2.53,0,0,0,.36-.25v0a1.45,1.45,0,0,0,.24-.26,0,0,0,0,0,0,0,1.16,1.16,0,0,0,.14-.27,0,0,0,0,1,0,0,1.06,1.06,0,0,0,0-.25h0v-1.22Z" style="opacity:0.2"></path><path d="M330.23,322.81a1.51,1.51,0,0,0,.09.18s0,.08.07.12a1.46,1.46,0,0,0,.16.19l.1.1a2.07,2.07,0,0,0,.36.25l31.85,18.4.43.2.07,0a2.91,2.91,0,0,0,.39.12l.08,0,.45.08h.07a3.71,3.71,0,0,0,.47,0h.07l.48,0h.08a2,2,0,0,0,.34-.06l.28-.07.22-.06a4.56,4.56,0,0,0,.55-.24l19.31-11.23a2.53,2.53,0,0,0,.36-.25v0a1.45,1.45,0,0,0,.24-.26,0,0,0,0,0,0,0,1.16,1.16,0,0,0,.14-.27,0,0,0,0,1,0,0,1,1,0,0,0,0-.35,1.47,1.47,0,0,0-.82-1.09l-31.86-18.39a4.38,4.38,0,0,0-4,0L331,321.35a1.4,1.4,0,0,0-.82,1.15,1.13,1.13,0,0,0,0,.18S330.22,322.77,330.23,322.81Z" style="fill:#e0e0e0"></path><path d="M332.88,322.5l31,17.87.12.06.06,0,.25.07.17,0h.44a1.89,1.89,0,0,0,.32,0l.2,0,.25-.07a1.45,1.45,0,0,0,.22-.09l9.95-5.79-32-18.46Z" style="fill:#e0e0e0"></path><path d="M364.89,340.58h0Z" style="fill:#263238"></path><path d="M362.33,317.58,356.51,321a.59.59,0,0,0,0,1l8.71,5a.94.94,0,0,0,1,0l5.82-3.42a.59.59,0,0,0,0-1l-8.71-5A1,1,0,0,0,362.33,317.58Z" style="fill:#e0e0e0"></path><path d="M332.88,322.5l31,17.87.12.06.06,0,.25.07.17,0h.44a1.89,1.89,0,0,0,.32,0l.2,0,.25-.07a1.45,1.45,0,0,0,.22-.09l9.95-5.79-32-18.46Z" style="opacity:0.4"></path><path d="M362.33,317.58,356.51,321a.59.59,0,0,0,0,1l8.71,5a.94.94,0,0,0,1,0l5.82-3.42a.59.59,0,0,0,0-1l-8.71-5A1,1,0,0,0,362.33,317.58Z" style="opacity:0.4"></path><path d="M364.66,340.9l-3.3-21a3.88,3.88,0,0,0-1.88-2.75l-32.07-18.65a1,1,0,0,0-.86,0h0l-.76.38.26.09a1,1,0,0,0-.09.57l3.3,21a3.88,3.88,0,0,0,1.88,2.75l32.08,18.65a.9.9,0,0,0,.21.08l0,.31.74-.36h0A1,1,0,0,0,364.66,340.9Z" style="fill:#e0e0e0"></path><path d="M364.66,340.9l-3.3-21a3.88,3.88,0,0,0-1.88-2.75l-32.07-18.65a1,1,0,0,0-.86,0h0l-.76.38.26.09a1,1,0,0,0-.09.57l3.3,21a3.88,3.88,0,0,0,1.88,2.75l32.08,18.65a.9.9,0,0,0,.21.08l0,.31.74-.36h0A1,1,0,0,0,364.66,340.9Z" style="opacity:0.30000000000000004"></path><path d="M358.84,317.51l-32.08-18.65a1,1,0,0,0-1.44,1l3.3,21a3.86,3.86,0,0,0,1.87,2.74l32.08,18.65a1,1,0,0,0,1.45-1l-3.3-21A3.84,3.84,0,0,0,358.84,317.51Z" style="fill:#e0e0e0"></path><path d="M343.29,318.05a7.09,7.09,0,0,1,3.19,4.59c.2,1.63-.88,2.24-2.43,1.34a7.09,7.09,0,0,1-3.18-4.58C340.66,317.76,341.75,317.16,343.29,318.05Z" style="fill:#fff"></path><path d="M396.93,294.39l2.89,9.92-17.7,12.57-5.95,2.51a9.25,9.25,0,0,0-3.94,3.14l-4.86,6.71c-.54,1.13,2,3,3.2,3.27h0a4.36,4.36,0,0,0,4-1l3.74-3.44,1-.36a15.7,15.7,0,0,0,7.52-5.65h0L407.65,314a8,8,0,0,0,4.8-9.47L409,291.74Z" style="fill:#ffa8a7"></path><path d="M392,281.08l5.13,15.35c8.35.57,12.24-2.24,13.39-4.72-4.38-19.93-7.27-23.24-13-23.66S392,281.08,392,281.08Z" style="fill:#407BFF"></path><path d="M392,281.08l5.13,15.35c8.35.57,12.24-2.24,13.39-4.72-4.38-19.93-7.27-23.24-13-23.66S392,281.08,392,281.08Z" style="opacity:0.5"></path></g></svg>