<?xml version="1.0" standalone="no"?>
<!DOCTYPE svg PUBLIC "-//W3C//DTD SVG 20010904//EN"
 "http://www.w3.org/TR/2001/REC-SVG-20010904/DTD/svg10.dtd">
<svg version="1.0" xmlns="http://www.w3.org/2000/svg"
 width="821.000000pt" height="821.000000pt" viewBox="0 0 821.000000 821.000000"
 preserveAspectRatio="xMidYMid meet">
<metadata>
Created by potrace 1.11, written by Peter Selinger 2001-2013
</metadata>
<g transform="translate(0.000000,821.000000) scale(0.100000,-0.100000)"
fill="#000000" stroke="none">
<path d="M3845 8204 c-215 -21 -280 -29 -410 -50 -677 -113 -1316 -393 -1855
-813 -796 -620 -1331 -1504 -1514 -2501 -49 -269 -60 -403 -61 -735 0 -332 11
-463 61 -735 229 -1248 1002 -2300 2127 -2896 585 -311 1240 -473 1908 -474
1079 -1 2106 419 2882 1179 362 354 677 808 872 1256 178 407 276 769 332
1215 25 204 25 704 0 910 -84 677 -299 1266 -664 1817 -409 617 -954 1091
-1638 1424 -419 204 -825 322 -1325 385 -109 14 -625 27 -715 18z m500 -24
c533 -32 1009 -150 1489 -371 681 -313 1282 -833 1697 -1469 570 -872 782
-1912 603 -2954 -72 -422 -238 -885 -459 -1279 -315 -563 -776 -1057 -1319
-1414 -255 -168 -567 -325 -851 -428 -752 -272 -1589 -316 -2373 -124 -423
103 -883 305 -1258 552 -426 280 -810 652 -1101 1067 -339 481 -579 1059 -678
1628 -96 557 -79 1131 50 1667 152 634 452 1221 870 1705 315 365 652 646
1055 880 687 398 1480 587 2275 540z"/>
<path d="M3855 8084 c-215 -21 -280 -29 -409 -50 -789 -131 -1523 -503 -2100
-1064 -485 -471 -823 -1016 -1029 -1655 -81 -252 -138 -525 -169 -800 -17
-159 -17 -661 0 -820 104 -940 515 -1787 1184 -2441 647 -632 1465 -1017 2373
-1116 157 -17 662 -17 820 0 357 39 738 133 1070 264 246 97 589 284 809 440
953 678 1549 1691 1678 2853 20 179 17 683 -5 860 -116 940 -519 1758 -1190
2411 -402 392 -879 692 -1404 883 -302 110 -566 173 -913 217 -109 14 -625 27
-715 18z m-2365 -2645 c50 -21 244 -155 1212 -835 174 -122 336 -234 361 -248
102 -60 193 -188 218 -307 25 -118 -9 -288 -57 -285 -18 1 -20 4 -11 15 9 11
9 13 0 8 -7 -4 -16 0 -22 10 -8 14 -11 15 -11 3 -1 -9 -5 -6 -10 8 -5 12 -21
27 -35 32 -15 6 -24 14 -20 19 3 5 1 12 -4 15 -5 4 -12 2 -16 -4 -4 -6 -11 -8
-16 -4 -5 3 -7 10 -4 15 7 11 -36 29 -49 21 -5 -3 -6 0 -3 6 15 23 -28 65 -95
94 -10 4 -18 12 -18 18 0 5 -5 10 -11 10 -5 0 -7 -4 -4 -10 10 -16 -1 -11 -16
7 -10 11 -10 14 -1 9 19 -11 14 -1 -10 20 -13 12 -18 13 -13 4 7 -12 6 -13 -7
-3 -8 7 -18 9 -22 5 -4 -4 -6 0 -4 8 2 8 -2 14 -9 15 -6 0 -15 4 -20 9 -5 5
-3 6 5 2 17 -10 15 2 -3 20 -12 12 -15 12 -16 2 0 -7 -5 -2 -10 11 -7 18 -12
21 -23 12 -11 -9 -16 -9 -22 0 -4 8 -3 9 4 5 19 -11 14 2 -8 24 -22 22 -35 26
-24 8 5 -9 3 -9 -9 1 -9 7 -15 17 -12 21 7 11 -17 28 -37 25 -11 -2 -15 2 -11
12 4 10 0 13 -12 11 -13 -2 -21 6 -27 30 -7 27 -12 31 -23 22 -10 -8 -15 -8
-21 1 -5 8 -3 9 6 4 9 -5 11 -4 6 3 -4 7 -14 12 -22 12 -8 0 -17 7 -20 15 -4
8 -10 15 -16 15 -5 0 -6 -6 -2 -12 6 -10 4 -10 -8 0 -10 8 -14 21 -10 35 5 19
3 20 -10 9 -11 -9 -18 -10 -23 -2 -3 6 -11 8 -16 5 -5 -4 -6 2 -2 11 5 13 3
16 -10 11 -9 -3 -19 -1 -23 5 -4 7 -3 8 4 4 7 -4 12 -4 12 0 0 11 -64 64 -78
64 -7 0 -15 7 -18 15 -4 9 -12 14 -19 13 -8 -2 -14 2 -15 7 -3 20 -22 34 -41
30 -11 -2 -17 0 -14 5 13 21 -33 64 -97 92 -10 4 -18 12 -18 18 0 5 -5 10 -11
10 -5 0 -7 -4 -4 -10 10 -16 -1 -11 -16 7 -10 11 -10 14 -1 9 19 -11 14 -1
-10 20 -13 12 -18 13 -13 4 7 -12 6 -13 -7 -3 -8 7 -18 9 -22 5 -4 -4 -6 0 -4
8 2 8 -2 14 -9 15 -6 0 -15 4 -20 9 -5 5 -3 6 5 2 6 -4 12 -3 12 1 0 10 -41
42 -53 42 -5 0 -19 11 -32 25 -25 27 -41 35 -29 14 5 -9 3 -9 -9 1 -9 7 -15
17 -12 21 7 11 -17 28 -37 25 -11 -2 -15 2 -11 12 4 10 0 13 -12 11 -10 -2
-20 4 -22 12 -4 13 -3 13 6 0 6 -8 11 -10 11 -4 0 21 -36 54 -47 43 -8 -8 -13
-7 -18 2 -6 8 -4 10 5 4 9 -5 11 -4 6 3 -4 7 -14 12 -22 12 -8 0 -17 7 -20 15
-4 8 -10 15 -16 15 -5 0 -6 -6 -2 -12 6 -10 4 -10 -8 0 -10 8 -14 21 -10 35 5
19 3 20 -10 9 -11 -9 -18 -10 -23 -2 -3 6 -11 8 -16 5 -5 -4 -6 2 -2 11 5 13
3 16 -10 11 -9 -3 -19 -1 -23 5 -4 7 -3 8 4 4 24 -15 11 7 -20 35 -18 16 -43
29 -55 29 -13 0 -23 5 -23 11 0 5 6 7 13 4 6 -4 3 0 -7 9 -10 8 -23 13 -29 9
-6 -3 -7 -1 -4 4 9 14 -14 31 -36 28 -9 -2 -15 0 -12 5 8 14 -5 38 -31 54 -17
12 -22 13 -18 3 3 -8 -2 -14 -10 -14 -8 0 -13 4 -10 9 3 4 0 8 -5 8 -6 0 -11
5 -11 11 0 5 5 7 12 3 7 -4 8 -3 4 4 -4 7 -14 12 -22 12 -8 0 -17 7 -20 15 -4
8 -10 15 -16 15 -5 0 -6 -4 -3 -10 10 -16 -1 -11 -16 7 -12 15 -12 16 1 8 8
-4 6 1 -5 12 -11 11 -27 19 -37 17 -9 -1 -25 7 -35 18 -10 12 -12 18 -5 14 23
-13 12 8 -15 31 -22 18 -24 22 -10 23 9 0 17 4 17 8 0 17 78 31 160 28 62 -2
100 -10 140 -27z m-86 -225 c3 -8 2 -12 -4 -9 -6 3 -10 10 -10 16 0 14 7 11
14 -7z m2922 -39 c9 -14 20 -43 23 -63 17 -91 -27 -121 -83 -56 -29 34 -38 38
-93 42 -35 2 -69 -1 -82 -7 -20 -11 -22 -19 -19 -84 l3 -72 37 -3 c38 -3 38
-4 52 61 5 22 12 28 29 25 32 -4 47 -44 47 -123 0 -110 -49 -184 -73 -110 -14
44 -26 55 -58 55 -32 0 -34 -6 -30 -100 2 -30 8 -61 13 -67 6 -8 35 -13 72
-13 74 0 109 19 140 75 40 71 96 48 81 -34 -9 -51 -45 -131 -59 -132 -100 -4
-464 5 -478 12 -25 14 -23 43 6 59 13 7 27 22 31 34 11 39 18 241 10 321 -6
69 -11 82 -36 106 -16 15 -29 33 -29 41 0 34 22 38 204 39 100 1 195 5 211 9
52 13 64 11 81 -15z m2282 0 c41 -52 36 -155 -8 -155 -11 0 -35 17 -54 37 -31
34 -39 37 -98 41 -88 6 -100 -7 -96 -97 l3 -66 40 0 c36 0 40 3 45 31 9 42 18
54 41 54 12 0 23 -10 29 -26 13 -34 13 -163 -1 -202 -15 -45 -59 -55 -59 -14
0 33 -30 63 -58 60 -26 -3 -27 -5 -30 -76 -4 -98 2 -105 94 -100 81 4 103 17
135 81 20 38 45 47 67 25 16 -16 15 -56 -4 -114 -29 -91 -12 -86 -274 -85
-127 1 -237 4 -245 7 -28 11 -26 37 4 64 24 23 30 38 36 94 8 75 2 323 -9 347
-4 9 -18 21 -32 27 -26 12 -32 40 -12 60 8 8 65 12 187 13 97 0 194 4 216 8
61 13 62 13 83 -14z m-3402 -7 c16 -15 16 -22 4 -57 -12 -37 -11 -46 14 -115
37 -101 50 -111 76 -55 29 65 26 100 -15 149 -28 33 -33 45 -25 60 14 26 70
40 156 40 123 0 172 -34 123 -86 l-22 -24 28 -67 c15 -38 36 -77 46 -87 18
-19 19 -19 39 27 12 26 24 69 27 96 5 43 3 50 -15 55 -23 8 -34 29 -25 52 14
38 148 49 183 14 26 -26 25 -32 -4 -67 -13 -16 -50 -103 -81 -193 -84 -241
-113 -313 -137 -332 -48 -42 -78 -11 -136 142 -30 78 -53 125 -62 125 -9 0
-31 -45 -60 -120 -55 -145 -58 -152 -91 -160 -49 -12 -66 16 -155 265 -57 158
-93 243 -110 261 -57 60 2 102 138 97 66 -2 91 -7 104 -20z m1660 -4 c71 -37
95 -134 48 -200 -40 -56 -40 -56 -24 -62 33 -11 87 -78 94 -114 15 -82 -37
-172 -117 -203 -34 -13 -78 -15 -241 -13 -177 3 -200 5 -210 21 -7 11 -8 21
-1 31 51 70 49 59 53 260 l4 191 -32 28 c-34 31 -36 56 -4 72 12 6 98 10 206
9 164 0 189 -3 224 -20z m1056 2 c97 -48 150 -147 150 -281 0 -104 -28 -182
-87 -241 -65 -64 -110 -74 -337 -74 l-188 0 -16 25 c-17 25 -16 27 18 58 l35
32 6 182 c7 191 3 224 -33 243 -28 15 -27 58 3 70 12 5 110 8 217 7 167 -2
200 -5 232 -21z m1037 13 c45 -16 55 -41 31 -72 -11 -14 -20 -29 -20 -35 0
-17 61 -157 74 -170 19 -20 38 3 75 92 35 83 38 104 17 112 -18 7 -27 29 -20
48 15 38 183 51 224 18 30 -24 20 -58 -21 -67 -16 -4 -36 -16 -43 -28 -7 -12
-62 -129 -121 -260 -118 -259 -130 -276 -183 -247 -20 12 -45 62 -123 248 -53
128 -103 240 -110 248 -7 9 -23 20 -36 25 -23 8 -30 33 -15 56 24 38 195 58
271 32z m-4755 -605 c3 -8 2 -12 -4 -9 -6 3 -10 10 -10 16 0 14 7 11 14 -7z
m1632 -260 c38 -40 93 -150 179 -362 48 -119 62 -143 82 -148 20 -5 24 -12 21
-38 -4 -41 -44 -55 -153 -54 -103 1 -134 8 -152 35 -14 20 -13 24 12 47 52 49
22 72 -97 75 -82 2 -116 -38 -63 -73 65 -43 -2 -92 -113 -83 -34 2 -69 10 -77
17 -25 21 -17 49 19 71 27 16 41 37 67 97 78 188 101 259 108 329 9 91 33 123
94 123 33 0 46 -6 73 -36z m622 -97 c70 -70 133 -127 139 -127 18 0 27 44 19
98 -4 33 -14 52 -32 67 -32 26 -30 64 6 83 31 16 153 11 175 -8 23 -19 18 -51
-12 -83 l-28 -28 -5 -232 c-5 -236 -12 -277 -45 -277 -8 0 -81 68 -162 150
-82 85 -153 149 -162 148 -40 -8 -36 -161 5 -199 48 -45 18 -87 -68 -96 -107
-11 -164 40 -107 98 l29 30 0 169 c0 181 -6 213 -47 246 -21 16 -25 26 -19 47
8 33 49 47 129 43 l58 -2 127 -127z m717 118 c38 -2 54 -9 72 -29 31 -37 49
-100 37 -134 -16 -45 -47 -40 -110 17 -62 57 -102 66 -128 30 -26 -38 -6 -61
89 -101 102 -44 121 -58 146 -113 51 -111 -13 -244 -134 -280 -111 -33 -272
-4 -301 54 -23 44 -37 128 -26 156 15 39 37 30 75 -30 38 -59 76 -85 125 -85
44 0 70 17 70 45 0 28 -21 44 -92 70 -134 50 -200 178 -149 291 37 81 120 127
216 118 33 -3 82 -7 110 -9z m518 -19 c39 -38 94 -148 165 -326 69 -172 71
-176 98 -189 31 -14 32 -56 2 -72 -28 -15 -182 -23 -232 -12 -22 5 -45 18 -53
30 -14 20 -13 24 12 47 52 49 22 72 -97 75 -39 1 -61 -4 -72 -15 -22 -22 -20
-35 10 -59 58 -47 -7 -92 -118 -82 -93 8 -119 50 -54 88 37 21 44 35 121 234
27 69 49 144 51 175 8 82 12 98 36 120 35 33 90 27 131 -14z m687 23 c68 -15
114 -55 129 -114 15 -59 1 -114 -39 -152 -37 -35 -37 -44 -1 -65 41 -23 60
-56 73 -128 9 -49 17 -64 35 -73 33 -15 31 -61 -4 -84 -39 -26 -133 -24 -170
3 -35 26 -48 53 -72 148 -22 87 -34 106 -66 106 -17 0 -24 -7 -29 -30 -9 -49
5 -123 30 -153 31 -37 19 -62 -39 -78 -53 -14 -171 -5 -203 16 -30 20 -30 40
0 76 21 25 25 42 31 146 4 64 5 153 2 198 -6 70 -10 83 -32 100 -26 22 -31 40
-15 65 7 12 41 16 157 21 81 3 151 6 155 7 4 1 30 -3 58 -9z m526 -14 c31 -20
30 -42 -3 -78 l-28 -28 0 -191 0 -190 28 -23 c36 -28 34 -64 -6 -83 -40 -19
-155 -26 -204 -13 -60 16 -70 41 -35 82 l27 33 0 186 0 187 -33 37 c-47 54
-27 80 78 100 45 8 152 -3 176 -19z m-3902 -391 c3 -8 2 -12 -4 -9 -6 3 -10
10 -10 16 0 14 7 11 14 -7z m152 -116 c3 -4 -1 -5 -10 -4 -8 1 -18 5 -22 8 -3
4 1 5 10 4 8 -1 18 -5 22 -8z m1469 -376 c13 -9 18 -35 5 -27 -14 9 -13 -11 3
-36 10 -17 10 -23 0 -26 -15 -6 -18 -93 -3 -93 6 0 10 -7 10 -16 0 -8 -4 -12
-10 -9 -5 3 -10 1 -10 -4 0 -6 5 -11 10 -11 6 0 10 -7 10 -16 0 -8 -4 -12 -10
-9 -5 3 -10 1 -10 -4 0 -6 5 -11 10 -11 6 0 10 -7 10 -16 0 -8 -4 -12 -10 -9
-5 3 -10 2 -10 -4 0 -5 4 -11 10 -13 8 -2 16 -395 9 -434 -5 -27 2 -154 9
-151 4 1 8 -2 10 -7 3 -10 -2 -11 -78 -22 -68 -9 -2587 -16 -2647 -7 l-52 8
97 63 c173 114 669 430 1009 643 l332 209 218 3 c507 6 1079 6 1088 -1z m52
-464 c-3 -8 -6 -5 -6 6 -1 11 2 17 5 13 3 -3 4 -12 1 -19z m-4 -191 c3 -8 -1
-14 -8 -14 -7 0 -11 6 -8 14 3 7 6 13 8 13 2 0 5 -6 8 -13z m-8 -136 c3 -5 2
-12 -3 -15 -5 -3 -9 1 -9 9 0 17 3 19 12 6z"/>
<path d="M4664 5087 c-3 -8 -4 -45 -2 -83 3 -63 5 -69 26 -72 13 -2 29 2 37 8
31 25 30 114 -2 145 -18 19 -52 19 -59 2z"/>
<path d="M4666 4824 c-9 -24 -7 -110 4 -138 9 -26 42 -35 66 -18 38 25 42 116
7 154 -20 22 -69 24 -77 2z"/>
<path d="M5701 5082 c-14 -26 -15 -361 -1 -396 8 -21 16 -26 45 -26 52 0 74
16 97 68 17 37 21 67 21 143 -1 142 -35 209 -115 224 -30 6 -38 4 -47 -13z"/>
<path d="M3710 4054 c-11 -31 -19 -63 -16 -71 8 -19 105 -18 112 2 7 16 -45
117 -63 122 -6 2 -21 -21 -33 -53z"/>
<path d="M5587 4103 c-14 -25 -38 -114 -32 -123 10 -16 105 -13 111 5 3 8 -7
38 -23 66 -27 51 -46 69 -56 52z"/>
<path d="M6235 4208 c-4 -24 -5 -63 -3 -88 3 -43 4 -45 33 -43 39 3 55 27 55
83 0 54 -22 90 -55 90 -20 0 -25 -6 -30 -42z"/>
</g>
</svg>
